<?xml version="1.0" encoding="UTF-8" standalone="no" ?>
<!DOCTYPE svg PUBLIC "-//W3C//DTD SVG 1.1//EN" "http://www.w3.org/Graphics/SVG/1.1/DTD/svg11.dtd">
<svg xmlns="http://www.w3.org/2000/svg" xmlns:xlink="http://www.w3.org/1999/xlink" version="1.1" width="500" height="500" viewBox="0 0 500 500" xml:space="preserve">
<desc>Created with Fabric.js 3.6.3</desc>
<defs>
</defs>
<rect x="0" y="0" width="100%" height="100%" fill="#ffffff"></rect>
<g transform="matrix(3.913379478690635 0 0 3.913379478690635 235.6260554885404 138.61309234859215)"  >
<g style=""   >
		<g transform="matrix(1 0 0 1 27.13500000000001 -20.14)"  >
<linearGradient id="SVGID_47374" gradientUnits="userSpaceOnUse" gradientTransform="matrix(1 0 0 1 56.96000000000001 11.61)"  x1="0" y1="0" x2="66" y2="66">
<stop offset="0%" style="stop-color:rgb(45,56,138);stop-opacity: 1"/>
<stop offset="100%" style="stop-color:rgb(0,174,239);stop-opacity: 1"/>
</linearGradient>
<path style="stroke: none; stroke-width: 1; stroke-dasharray: none; stroke-linecap: butt; stroke-dashoffset: 0; stroke-linejoin: miter; stroke-miterlimit: 4; fill: url(#SVGID_47374); fill-rule: nonzero; opacity: 1;"  transform=" translate(-59.635000000000005, -12.36)" d="M 57.71 13.11 h 3.85 c 0.41 0 0.75 -0.34 0.75 -0.75 s -0.34 -0.75 -0.75 -0.75 h -3.85 c -0.41 0 -0.75 0.34 -0.75 0.75 S 57.3 13.11 57.71 13.11 z" stroke-linecap="round" />
</g>
		<g transform="matrix(1 0 0 1 27.14 -15.75)"  >
<linearGradient id="SVGID_47375" gradientUnits="userSpaceOnUse" gradientTransform="matrix(1 0 0 1 56.97 16)"  x1="0" y1="0" x2="66" y2="66">
<stop offset="0%" style="stop-color:rgb(45,56,138);stop-opacity: 1"/>
<stop offset="100%" style="stop-color:rgb(0,174,239);stop-opacity: 1"/>
</linearGradient>
<path style="stroke: none; stroke-width: 1; stroke-dasharray: none; stroke-linecap: butt; stroke-dashoffset: 0; stroke-linejoin: miter; stroke-miterlimit: 4; fill: url(#SVGID_47375); fill-rule: nonzero; opacity: 1;"  transform=" translate(-59.64, -16.75)" d="M 57.71 17.5 h 3.85 c 0.41 0 0.75 -0.34 0.75 -0.75 S 61.98 16 61.57 16 h -3.85 c -0.41 0 -0.75 0.34 -0.75 0.75 S 57.3 17.5 57.71 17.5 z" stroke-linecap="round" />
</g>
		<g transform="matrix(1 0 0 1 27.13500000000001 -11.36)"  >
<linearGradient id="SVGID_47376" gradientUnits="userSpaceOnUse" gradientTransform="matrix(1 0 0 1 56.96000000000001 20.39)"  x1="0" y1="0" x2="66" y2="66">
<stop offset="0%" style="stop-color:rgb(45,56,138);stop-opacity: 1"/>
<stop offset="100%" style="stop-color:rgb(0,174,239);stop-opacity: 1"/>
</linearGradient>
<path style="stroke: none; stroke-width: 1; stroke-dasharray: none; stroke-linecap: butt; stroke-dashoffset: 0; stroke-linejoin: miter; stroke-miterlimit: 4; fill: url(#SVGID_47376); fill-rule: nonzero; opacity: 1;"  transform=" translate(-59.635000000000005, -21.14)" d="M 57.71 21.89 h 3.85 c 0.41 0 0.75 -0.34 0.75 -0.75 s -0.34 -0.75 -0.75 -0.75 h -3.85 c -0.41 0 -0.75 0.34 -0.75 0.75 S 57.3 21.89 57.71 21.89 z" stroke-linecap="round" />
</g>
		<g transform="matrix(1 0 0 1 27.13500000000001 -6.960000000000001)"  >
<linearGradient id="SVGID_47377" gradientUnits="userSpaceOnUse" gradientTransform="matrix(1 0 0 1 56.96000000000001 24.79)"  x1="0" y1="0" x2="66" y2="66">
<stop offset="0%" style="stop-color:rgb(45,56,138);stop-opacity: 1"/>
<stop offset="100%" style="stop-color:rgb(0,174,239);stop-opacity: 1"/>
</linearGradient>
<path style="stroke: none; stroke-width: 1; stroke-dasharray: none; stroke-linecap: butt; stroke-dashoffset: 0; stroke-linejoin: miter; stroke-miterlimit: 4; fill: url(#SVGID_47377); fill-rule: nonzero; opacity: 1;"  transform=" translate(-59.635000000000005, -25.54)" d="M 57.71 26.29 h 3.85 c 0.41 0 0.75 -0.34 0.75 -0.75 s -0.34 -0.75 -0.75 -0.75 h -3.85 c -0.41 0 -0.75 0.34 -0.75 0.75 S 57.3 26.29 57.71 26.29 z" stroke-linecap="round" />
</g>
		<g transform="matrix(1 0 0 1 27.13500000000001 -2.5700000000000003)"  >
<linearGradient id="SVGID_47378" gradientUnits="userSpaceOnUse" gradientTransform="matrix(1 0 0 1 56.96000000000001 29.18)"  x1="0" y1="0" x2="66" y2="66">
<stop offset="0%" style="stop-color:rgb(45,56,138);stop-opacity: 1"/>
<stop offset="100%" style="stop-color:rgb(0,174,239);stop-opacity: 1"/>
</linearGradient>
<path style="stroke: none; stroke-width: 1; stroke-dasharray: none; stroke-linecap: butt; stroke-dashoffset: 0; stroke-linejoin: miter; stroke-miterlimit: 4; fill: url(#SVGID_47378); fill-rule: nonzero; opacity: 1;"  transform=" translate(-59.635000000000005, -29.93)" d="M 57.71 30.68 h 3.85 c 0.41 0 0.75 -0.34 0.75 -0.75 s -0.34 -0.75 -0.75 -0.75 h -3.85 c -0.41 0 -0.75 0.34 -0.75 0.75 S 57.3 30.68 57.71 30.68 z" stroke-linecap="round" />
</g>
		<g transform="matrix(1 0 0 1 15.364999999999995 0.629999999999999)"  >
<linearGradient id="SVGID_47379" gradientUnits="userSpaceOnUse" gradientTransform="matrix(1 0 0 1 31.61 1.379999999999999)"  x1="0" y1="0" x2="66" y2="66">
<stop offset="0%" style="stop-color:rgb(45,56,138);stop-opacity: 1"/>
<stop offset="100%" style="stop-color:rgb(0,174,239);stop-opacity: 1"/>
</linearGradient>
<path style="stroke: none; stroke-width: 1; stroke-dasharray: none; stroke-linecap: butt; stroke-dashoffset: 0; stroke-linejoin: miter; stroke-miterlimit: 4; fill: url(#SVGID_47379); fill-rule: nonzero; opacity: 1;"  transform=" translate(-47.864999999999995, -33.129999999999995)" d="M 54.32 33.73 V 7.84 c 0 -3.56 -2.9 -6.46 -6.46 -6.46 s -6.46 2.9 -6.46 6.46 v 25.89 c -5.96 2.58 -9.79 8.38 -9.79 14.9 c 0 8.96 7.29 16.25 16.25 16.25 c 5.37 0 10.39 -2.65 13.43 -7.1 c 0.23 -0.34 0.15 -0.81 -0.2 -1.04 c -0.34 -0.23 -0.81 -0.15 -1.04 0.2 c -2.75 4.03 -7.31 6.44 -12.19 6.44 c -8.13 0 -14.75 -6.62 -14.75 -14.75 c 0 -6.08 3.66 -11.46 9.32 -13.7 c 0.29 -0.11 0.47 -0.39 0.47 -0.7 V 7.84 c 0 -2.73 2.22 -4.96 4.96 -4.96 s 4.96 2.22 4.96 4.96 v 26.39 c 0 0.31 0.19 0.58 0.47 0.7 c 5.66 2.25 9.32 7.63 9.32 13.7 c 0 2.16 -0.46 4.24 -1.35 6.18 c -0.17 0.38 -0.01 0.82 0.37 1 c 0.38 0.18 0.82 0.01 1 -0.37 c 0.99 -2.14 1.49 -4.44 1.49 -6.81 C 64.11 42.11 60.28 36.31 54.32 33.73 z" stroke-linecap="round" />
</g>
		<g transform="matrix(1 0 0 1 15.360000000000007 6.519999999999996)"  >
<linearGradient id="SVGID_47380" gradientUnits="userSpaceOnUse" gradientTransform="matrix(1 0 0 1 38.11000000000001 19.659999999999997)"  x1="0" y1="0" x2="66" y2="66">
<stop offset="0%" style="stop-color:rgb(45,56,138);stop-opacity: 1"/>
<stop offset="100%" style="stop-color:rgb(0,174,239);stop-opacity: 1"/>
</linearGradient>
<path style="stroke: none; stroke-width: 1; stroke-dasharray: none; stroke-linecap: butt; stroke-dashoffset: 0; stroke-linejoin: miter; stroke-miterlimit: 4; fill: url(#SVGID_47380); fill-rule: nonzero; opacity: 1;"  transform=" translate(-47.86000000000001, -39.019999999999996)" d="M 40.84 42.96 c -0.34 -0.23 -0.81 -0.14 -1.04 0.2 c -1.1 1.62 -1.69 3.51 -1.69 5.47 c 0 5.38 4.37 9.75 9.75 9.75 s 9.75 -4.37 9.75 -9.75 c 0 -4.3 -2.91 -8.14 -7 -9.35 V 20.41 c 0 -0.41 -0.34 -0.75 -0.75 -0.75 s -0.75 0.34 -0.75 0.75 v 19.45 c 0 0.35 0.24 0.65 0.58 0.73 c 3.72 0.85 6.42 4.23 6.42 8.04 c 0 4.55 -3.7 8.25 -8.25 8.25 s -8.25 -3.7 -8.25 -8.25 c 0 -1.66 0.49 -3.26 1.43 -4.63 C 41.27 43.66 41.18 43.2 40.84 42.96 z" stroke-linecap="round" />
</g>
		<g transform="matrix(1 0 0 1 11.604019799498335 -1.5344586897513839)"  >
<linearGradient id="SVGID_47381" gradientUnits="userSpaceOnUse" gradientTransform="matrix(1 0 0 1 41.598039598996664 19.659999999999997)"  x1="0" y1="0" x2="66" y2="66">
<stop offset="0%" style="stop-color:rgb(45,56,138);stop-opacity: 1"/>
<stop offset="100%" style="stop-color:rgb(0,174,239);stop-opacity: 1"/>
</linearGradient>
<path style="stroke: none; stroke-width: 1; stroke-dasharray: none; stroke-linecap: butt; stroke-dashoffset: 0; stroke-linejoin: miter; stroke-miterlimit: 4; fill: url(#SVGID_47381); fill-rule: nonzero; opacity: 1;"  transform=" translate(-44.10401979949833, -30.965541310248618)" d="M 42.81 42.12 c 0.96 -0.74 2.04 -1.26 3.22 -1.52 c 0.34 -0.08 0.58 -0.38 0.58 -0.73 V 20.41 c 0 -0.41 -0.34 -0.75 -0.75 -0.75 s -0.75 0.34 -0.75 0.75 v 18.87 c -1.17 0.34 -2.25 0.9 -3.22 1.65 c -0.33 0.25 -0.39 0.73 -0.13 1.05 c 0.15 0.19 0.37 0.29 0.59 0.29 C 42.51 42.28 42.67 42.22 42.81 42.12 z" stroke-linecap="round" />
</g>
		<g transform="matrix(1 0 0 1 -11.864999999999998 -12.643514170470507)"  >
<linearGradient id="SVGID_47382" gradientUnits="userSpaceOnUse" gradientTransform="matrix(1 0 0 1 1.8929716590589862 1.1129716590589886)"  x1="0" y1="0" x2="66" y2="66">
<stop offset="0%" style="stop-color:rgb(45,56,138);stop-opacity: 1"/>
<stop offset="100%" style="stop-color:rgb(0,174,239);stop-opacity: 1"/>
</linearGradient>
<path style="stroke: none; stroke-width: 1; stroke-dasharray: none; stroke-linecap: butt; stroke-dashoffset: 0; stroke-linejoin: miter; stroke-miterlimit: 4; fill: url(#SVGID_47382); fill-rule: nonzero; opacity: 1;"  transform=" translate(-20.635, -19.856485829529497)" d="M 35.84 30.83 c 0.41 0.02 0.77 -0.3 0.79 -0.71 c 0.02 -0.41 -0.3 -0.77 -0.71 -0.78 l -4.99 -0.24 l -1.96 -1.96 l 3.34 0.16 c 0.41 0.02 0.76 -0.3 0.79 -0.71 c 0.02 -0.41 -0.3 -0.77 -0.71 -0.78 l -4.99 -0.24 l -3.29 -3.29 c 0.34 -0.49 0.57 -1.05 0.68 -1.65 h 4.65 l 3.7 3.36 c 0.14 0.13 0.32 0.19 0.5 0.19 c 0.2 0 0.41 -0.08 0.55 -0.25 c 0.28 -0.31 0.26 -0.78 -0.05 -1.06 l -2.47 -2.25 h 2.77 l 3.69 3.36 c 0.14 0.13 0.32 0.19 0.5 0.19 c 0.2 0 0.41 -0.08 0.55 -0.25 c 0.28 -0.31 0.26 -0.78 -0.05 -1.06 l -3.3 -3 l 3.3 -3 c 0.31 -0.28 0.33 -0.75 0.05 -1.06 c -0.28 -0.31 -0.75 -0.33 -1.06 -0.05 l -3.69 3.36 h -2.77 l 2.47 -2.25 c 0.31 -0.28 0.33 -0.75 0.05 -1.06 c -0.28 -0.31 -0.75 -0.33 -1.06 -0.05 l -3.7 3.36 h -4.65 c -0.11 -0.61 -0.34 -1.17 -0.68 -1.65 l 3.29 -3.29 l 4.99 -0.24 c 0.41 -0.02 0.73 -0.37 0.71 -0.79 c -0.02 -0.41 -0.38 -0.73 -0.79 -0.71 l -3.34 0.16 l 1.96 -1.96 l 4.99 -0.24 c 0.41 -0.02 0.73 -0.37 0.71 -0.79 s -0.38 -0.73 -0.79 -0.71 l -4.45 0.21 l 0.21 -4.45 c 0.02 -0.41 -0.3 -0.77 -0.71 -0.78 c -0.42 0 -0.76 0.3 -0.79 0.71 l -0.24 4.99 l -1.96 1.96 l 0.16 -3.34 c 0.02 -0.41 -0.3 -0.77 -0.71 -0.78 c -0.41 -0.01 -0.76 0.3 -0.79 0.71 l -0.24 4.99 l -3.29 3.29 c -0.49 -0.34 -1.05 -0.57 -1.65 -0.68 v -4.65 l 3.36 -3.69 C 25.03 7.07 25 6.59 24.7 6.32 c -0.31 -0.28 -0.78 -0.26 -1.06 0.05 l -2.25 2.47 V 6.07 l 3.36 -3.69 C 25.03 2.07 25 1.59 24.7 1.31 c -0.31 -0.28 -0.78 -0.26 -1.06 0.05 l -3 3.3 l -3 -3.3 c -0.28 -0.31 -0.75 -0.33 -1.06 -0.05 c -0.31 0.28 -0.33 0.75 -0.05 1.06 l 3.36 3.69 v 2.77 l -2.25 -2.47 c -0.28 -0.31 -0.75 -0.33 -1.06 -0.05 c -0.31 0.28 -0.33 0.75 -0.05 1.06 l 3.36 3.69 v 4.65 c -0.61 0.11 -1.17 0.34 -1.65 0.68 l -3.29 -3.29 l -0.24 -4.99 c -0.02 -0.41 -0.36 -0.72 -0.79 -0.71 c -0.41 0.02 -0.73 0.37 -0.71 0.78 l 0.16 3.34 l -1.96 -1.96 l -0.24 -4.99 c -0.02 -0.42 -0.36 -0.72 -0.79 -0.71 C 9.98 3.9 9.66 4.25 9.68 4.66 l 0.21 4.45 L 5.44 8.9 C 5.05 8.89 4.67 9.2 4.65 9.62 s 0.3 0.77 0.71 0.79 l 4.99 0.24 l 1.96 1.96 l -3.34 -0.16 c -0.4 -0.01 -0.77 0.3 -0.79 0.71 s 0.3 0.77 0.71 0.79 l 4.99 0.24 l 3.29 3.29 c -0.34 0.49 -0.57 1.05 -0.68 1.65 h -4.65 l -3.7 -3.36 c -0.31 -0.28 -0.78 -0.26 -1.06 0.05 c -0.28 0.31 -0.26 0.78 0.05 1.06 l 2.47 2.25 H 6.84 l -3.69 -3.36 c -0.31 -0.28 -0.78 -0.26 -1.06 0.05 c -0.28 0.31 -0.26 0.78 0.05 1.06 l 3.3 3 l -3.3 3 c -0.31 0.28 -0.33 0.75 -0.05 1.06 c 0.15 0.16 0.35 0.25 0.55 0.25 c 0.18 0 0.36 -0.06 0.5 -0.19 l 3.69 -3.36 h 2.77 l -2.47 2.25 c -0.31 0.28 -0.33 0.75 -0.05 1.06 c 0.15 0.16 0.35 0.25 0.55 0.25 c 0.18 0 0.36 -0.06 0.5 -0.19 l 3.7 -3.36 h 4.65 c 0.11 0.61 0.34 1.17 0.68 1.65 l -3.29 3.29 L 8.9 25.8 c -0.41 0.02 -0.73 0.37 -0.71 0.78 C 8.21 27 8.58 27.32 8.98 27.3 l 3.34 -0.16 l -1.96 1.96 l -4.99 0.24 c -0.41 0.02 -0.73 0.37 -0.71 0.78 c 0.02 0.41 0.39 0.73 0.79 0.71 l 4.45 -0.21 l -0.21 4.45 c -0.02 0.41 0.3 0.77 0.71 0.78 c 0.01 0 0.02 0 0.04 0 c 0.4 0 0.73 -0.31 0.75 -0.71 l 0.24 -4.99 l 1.96 -1.96 l -0.16 3.34 c -0.02 0.41 0.3 0.77 0.71 0.78 c 0.01 0 0.02 0 0.04 0 c 0.4 0 0.73 -0.31 0.75 -0.71 l 0.24 -4.99 l 3.29 -3.29 c 0.49 0.34 1.05 0.57 1.65 0.68 v 4.65 l -3.36 3.69 c -0.28 0.31 -0.26 0.78 0.05 1.06 c 0.31 0.28 0.78 0.26 1.06 -0.05 l 2.25 -2.47 v 2.77 l -3.36 3.69 c -0.28 0.31 -0.26 0.78 0.05 1.06 c 0.31 0.28 0.78 0.26 1.06 -0.05 l 3 -3.3 l 3 3.3 c 0.15 0.16 0.35 0.25 0.55 0.25 c 0.18 0 0.36 -0.06 0.5 -0.19 c 0.31 -0.28 0.33 -0.75 0.05 -1.06 l -3.36 -3.69 V 30.9 l 2.25 2.47 c 0.15 0.16 0.35 0.25 0.55 0.25 c 0.18 0 0.36 -0.06 0.5 -0.19 c 0.31 -0.28 0.33 -0.75 0.05 -1.06 l -3.36 -3.69 v -4.65 c 0.61 -0.11 1.17 -0.34 1.65 -0.68 l 3.29 3.29 l 0.24 4.99 c 0.02 0.4 0.35 0.71 0.75 0.71 c 0.01 0 0.02 0 0.04 0 c 0.41 -0.02 0.73 -0.37 0.71 -0.78 l -0.16 -3.34 l 1.96 1.96 l 0.24 4.99 c 0.02 0.4 0.35 0.71 0.75 0.71 c 0.01 0 0.02 0 0.04 0 c 0.41 -0.02 0.73 -0.37 0.71 -0.78 l -0.21 -4.45 L 35.84 30.83 z M 20.64 22.59 c -1.5 0 -2.72 -1.22 -2.72 -2.72 s 1.22 -2.72 2.72 -2.72 s 2.72 1.22 2.72 2.72 S 22.14 22.59 20.64 22.59 z" stroke-linecap="round" />
</g>
</g>
</g>
</svg>